<svg id="Layer_1" data-name="Layer 1" xmlns="http://www.w3.org/2000/svg" viewBox="0 0 360 216"><defs><style>.cls-1{fill:#fff;}</style></defs><title>NJM Insurance Group</title><path class="cls-1" d="M41.8,85.52c-.2,0-.4.51-.4,1.13v40.19c0,7.5.51,9.76,5.56,9.76.4,0,.91-.1,1.62-.1,1.62,0,2.43.41,2.43,1.44s-1.11,1.75-3.34,1.75c-2.43,0-5.36-.41-8.7-.41-3,0-5.77.41-8,.41s-3.14-.62-3.14-1.75.71-1.44,2.33-1.44h1.11c5.26,0,5.67-2.78,5.67-11V82.85c0-3.39-.3-4.32-3-4.83-3.44-.62-5.36.1-5.36-1.75,0-.92.61-1.44,1.82-1.44H47a2,2,0,0,1,1.82,1l33.79,44.71a.37.37,0,0,0,.3.1c.2,0,.4-.51.4-1.13V87.37a32.85,32.85,0,0,0-.4-7c-.51-2.16-2.83-2.57-7-2.57-1.31,0-2.23-.62-2.23-1.44s1-1.54,3.24-1.54c2.53,0,5.46.31,8.7.31s6-.41,7.79-.41,2.83.72,2.83,1.64-.51,1.34-1.62,1.34H93.09c-4.65,0-5.06,3-5.06,10.38v51.7a2.4,2.4,0,0,1-2,2.57c-.71,0-1.42-.51-2.23-1.64L42.11,85.63A.37.37,0,0,0,41.8,85.52Z"/><path class="cls-1" d="M108.67,148.57C102.6,155.46,96.73,159,91.47,159c-4.45,0-7.28-2.57-7.28-6.68A5.62,5.62,0,0,1,90,146.72a5.53,5.53,0,0,1,4.25,2.36c1.42,1.64,2.23,4,4.55,4,4.15,0,6.88-6.48,6.88-19V82.89c0-3.6-.4-4.32-3.34-4.83-3.34-.62-5.36.1-5.36-1.75,0-.82.71-1.44,1.92-1.44a114.92,114.92,0,0,0,12.44.82,118,118,0,0,0,12.54-.82c1.21,0,1.92.62,1.92,1.44,0,1.85-2,1.13-5.36,1.75-2.93.51-3.34,1.23-3.34,4.83v43.48A31,31,0,0,1,108.67,148.57Z"/><path class="cls-1" d="M139.09,88.22c-.4,0-.61.62-.71,2l-2,31.45a51.67,51.67,0,0,0-.3,5.76c0,6.58,1,9.15,5.67,9.15.51,0,1-.1,1.62-.1q2.43,0,2.43,1.54c0,1-1.11,1.64-3.34,1.64s-5-.31-8.6-.31c-3.24,0-5.87.31-7.89.31s-3-.51-3-1.64c0-.92.61-1.54,1.92-1.54,1.11,0,1.82.1,2.23.1,4.55,0,4.65-4.42,5.56-16.45l2-35.15V82.88c0-3.39-.4-4.32-3.14-4.83-3.24-.62-5.16.1-5.16-1.75,0-.92.61-1.34,1.72-1.34h16.59c.91,0,1.52.1,1.82.92l16.69,41.52c.3.82.71,1.23,1,1.23s.71-.31,1-1.13l16.59-40.81c.51-1.13.71-1.75,2-1.75h16.39c1.21,0,1.82.41,1.82,1.34,0,2.26-3,1-6.17,2.06-1.72.62-2.23,1.34-2.23,4.21,0,.72.1,1.44.1,2.36l1.21,45c.3,4.21.41,5.45,4.25,6.27,2.53.51,4.75-.21,4.75,1.75,0,1-.91,1.64-2.63,1.64-2.43,0-6.27-.62-11.53-.62-5.67,0-9.61.62-12,.62-1.72,0-2.63-.62-2.63-1.64s.71-1.54,1.92-1.54c5.87,0,6.78-1.13,6.78-6.27v-2.57l-1-38c0-.72-.3-1.13-.61-1.13s-.4.41-.71,1L163,136a2.37,2.37,0,0,1-2,1.54,2.13,2.13,0,0,1-2.12-1.23L140,89.56C139.7,88.74,139.39,88.22,139.09,88.22Z"/><path class="cls-1" d="M216.59,101.94c.79.25,1.58.17,1.58.86,0,.29-.25.45-.79.45-.33,0-1.41-.08-3.28-.08-1.58,0-2.83.12-3.57.12s-1.16-.12-1.16-.58.62-.37,1.21-.58c1.16-.37,1.21-1.07,1.21-2.26V80.38c0-.95,0-1.52-.71-1.77s-1.62,0-1.62-.78c0-.33.25-.45.83-.45.25,0,1.41.08,3.49.08,1.21,0,2.37-.08,3.45-.08.75,0,1.08.16,1.08.49s-.46.49-1.25.62c-1.2.16-1.2.53-1.2,1.81v19.79C215.84,101.11,215.88,101.73,216.59,101.94Z"/><path class="cls-1" d="M220.87,88.28c0-.86-.12-1.07-.66-1.19s-1,0-1-.33.71-.7,2-1.36c1.62-.86,2.2-1.52,2.45-1.52s.29.16.29.49v1.56c0,.29,0,.49,0,.58a.27.27,0,0,0,.21.25c.21,0,.58-.45,1.33-1a6.57,6.57,0,0,1,4.2-1.69c3.74,0,5,2.22,5,6.71v9.17c0,1.32,0,1.85.79,2.22.58.25,1.45,0,1.45.62,0,.45-.5.49-1.62.49-.58,0-1.33,0-2.24,0-.67,0-1.16,0-1.5,0s-.79,0-1.45,0c-.46,0-.67-.08-.67-.37,0-.66.71-.45,1.12-.7.62-.37.66-1,.66-2.14V90c0-2.88-.83-4.24-3.12-4.24-2.66,0-3.82,1.56-3.82,4.85v10c0,1.07.21,1.52.87,1.69s1.08,0,1.08.45-.21.49-.62.49c-.17,0-1.12,0-2.83,0s-2.78,0-3,0c-.58,0-.83-.16-.83-.53s.37-.45,1.08-.66c.54-.16.79-.82.79-1.89Z"/><path class="cls-1" d="M247.83,87.62c0,1,0,1.27-.58,1.27-.71,0-.75-.74-1.16-1.73-.66-1.52-1.54-2.26-2.91-2.26a2.87,2.87,0,0,0-3.07,2.76,2.44,2.44,0,0,0,.41,1.44c1,1.44,3.2,2.1,5.44,3.66a5.8,5.8,0,0,1,2.83,5c0,3.58-2.74,6-7,6-3.49,0-4.36-.54-4.36-2.18V98.85c0-1,0-1.44.58-1.44s.75.33,1,1c1,2.55,1.62,4.32,3.86,4.32,1.75,0,3-1.28,3-3.37a4.27,4.27,0,0,0-1.5-3.37c-1.21-1.11-3.41-1.85-5.4-3.41a4.14,4.14,0,0,1-1.58-3.29c0-3,2.58-5.31,6.48-5.31,2.7,0,3.95.37,3.95,1.23v2.39Z"/><path class="cls-1" d="M251.52,87.7c0-1.32,0-1.89-.79-2.26-.58-.25-1.41.08-1.41-.58,0-.45.42-.58,1.5-.58.37,0,.83.08,1.33.08.25,0,.83,0,1.87,0,.66,0,1,.29,1,.9V97.7c0,2.88.79,4.24,3.07,4.24,2.66,0,3.82-1.56,3.82-4.85V87c0-1.07-.21-1.52-.87-1.69s-1,0-1-.45a.51.51,0,0,1,.58-.58c.29,0,.67.08,1.12.08.79,0,1.62-.08,2.49-.08s1.16.29,1.16,1.07V99.3c0,.86.13,1.07.67,1.19s1,0,1,.37-.75.7-2,1.36c-1.62.86-2.2,1.52-2.45,1.52s-.29-.17-.29-.49v-2c0-.12-.17-.21-.25-.21s-.58.45-1.33,1a6.52,6.52,0,0,1-4.2,1.65c-3.74,0-5-2.18-5-6.66Z"/><path class="cls-1" d="M269.68,88.28c0-.86-.12-1.07-.67-1.19s-1,0-1-.33.75-.7,2-1.36c1.62-.86,2.2-1.52,2.45-1.52s.29.16.29.49v2.88c0,.12.17.21.25.21.33,0,.62-.62,1.33-1.48a4.06,4.06,0,0,1,3.12-1.85c1.5,0,2.41.95,2.41,2.67,0,1.52-.75,2.39-1.83,2.39s-1.5-.41-1.7-1.44c-.12-.53-.08-1.07-.58-1.07-1.45,0-2.58,2.22-2.58,6.13v7.82c0,1.07.21,1.52.87,1.69s1,0,1,.45-.17.49-.58.49c-.17,0-1.12,0-2.83,0s-2.78,0-3,0c-.58,0-.87-.16-.87-.53s.42-.45,1.12-.66c.54-.16.79-.82.79-1.89Z"/><path class="cls-1" d="M288.29,87.87c0-2-.29-2.92-1.62-2.92a3.43,3.43,0,0,0-3.07,3c-.42,1.89-.54,3.37-2.49,3.37-.75,0-1.08-.41-1.08-1.36a5.28,5.28,0,0,1,2-3.58A8.19,8.19,0,0,1,287.75,84c3.49,0,4.11,1.15,4.11,4.2V98c0,2,.08,2.88,1.16,2.88s1.12-1.32,1.62-1.32c.25,0,.37.21.37.58a3.76,3.76,0,0,1-3.49,3.37,2.4,2.4,0,0,1-2.2-1.07c-.58-1.15-.75-1.81-1.12-1.81s-.87.7-1.7,1.56a4.41,4.41,0,0,1-3.2,1.56,3.1,3.1,0,0,1-3.16-3.41c0-3.17,2.54-5.1,6.86-8.23,1.29-.95,1.29-1.36,1.29-2.92Zm-.42,4.85c-.54,0-1.16.74-2.33,2a6.19,6.19,0,0,0-2,3.95,2.1,2.1,0,0,0,2,2.3c1.75,0,2.87-1.85,2.87-5.35V94.53C288.46,93.34,288.37,92.72,287.87,92.72Z"/><path class="cls-1" d="M296.14,88.28c0-.86-.12-1.07-.67-1.19s-1,0-1-.33.71-.7,2-1.36c1.62-.86,2.2-1.52,2.45-1.52s.29.16.29.49v1.56c0,.29,0,.49,0,.58a.27.27,0,0,0,.21.25c.21,0,.58-.45,1.33-1a6.57,6.57,0,0,1,4.2-1.69c3.74,0,5,2.22,5,6.71v9.17c0,1.32,0,1.85.79,2.22.58.25,1.45,0,1.45.62,0,.45-.5.49-1.62.49-.58,0-1.33,0-2.24,0-.67,0-1.16,0-1.5,0s-.79,0-1.45,0c-.46,0-.67-.08-.67-.37,0-.66.71-.45,1.12-.7.62-.37.66-1,.66-2.14V90c0-2.88-.83-4.24-3.12-4.24-2.66,0-3.82,1.56-3.82,4.85v10c0,1.07.21,1.52.87,1.69s1.08,0,1.08.45-.21.49-.62.49c-.17,0-1.12,0-2.83,0s-2.78,0-3,0c-.58,0-.83-.16-.83-.53s.37-.45,1.08-.66c.54-.16.79-.82.79-1.89Z"/><path class="cls-1" d="M324.72,88.28c0,1.15,0,1.56-.79,1.56s-1.29-.53-1.75-1.65c-.79-1.81-1.12-3-2.45-3-1.62,0-3.41,3-3.41,7.2,0,5.55,2.45,9,4.9,9a3.29,3.29,0,0,0,2.53-1.4c.62-.78.67-1.69,1.25-1.69.29,0,.42.21.42.62a4.41,4.41,0,0,1-.83,2.1,5.42,5.42,0,0,1-4.7,2.67c-3.95,0-7.4-4.2-7.4-9.87S316.08,84,320.57,84a6.85,6.85,0,0,1,3.86.86c.25.21.29.74.29,1.56v1.81Z"/><path class="cls-1" d="M331.24,92.64c-1.16,0-1.37.12-1.37,1.36,0,4.85,2,7.78,4.95,7.78a4.35,4.35,0,0,0,3.37-1.56c.67-.78.67-1.73,1.29-1.73.29,0,.42.21.42.53,0,1.85-2.62,4.81-6.36,4.81-4.16,0-7.4-3.95-7.4-9.5,0-6.21,3.28-10.37,7.77-10.37,3.53,0,5.86,2.59,5.86,7.08,0,1.48-.08,1.6-1.66,1.6h-6.86Zm.13-6A9.23,9.23,0,0,0,330,90.75c0,.78.46,1,1.7,1,3.95,0,4.86-.33,4.86-2.63,0-2.67-1.12-4.28-2.58-4.28A3.08,3.08,0,0,0,331.37,86.59Z"/><path class="cls-1" d="M226,135.77c-1,1.4-3.49,2.63-6.15,2.63a8.79,8.79,0,0,1-7.27-3.78,15.62,15.62,0,0,1-3.12-9.79c0-8.06,4.49-13.41,10.68-13.41,2.91,0,5,.78,5.44,1.32a3,3,0,0,1,.29,1.52l.08,3.08a8.75,8.75,0,0,0,0,1c0,.45-.21.66-.71.66-1,0-1.16-1-1.75-2.59-1-2.67-1.87-3.83-3.91-3.83-3.57,0-5.9,3.91-5.9,11.07,0,8.84,2.54,13.58,6.15,13.58,1.91,0,2.58-1.07,2.58-3.5V128.2c0-.95,0-1.56-.71-1.73-.91-.21-1.75-.08-1.75-.7,0-.41.5-.49,1.5-.49.58,0,1.62.08,3.16.08,1.79,0,2.78-.12,3-.12.5,0,.75.21.75.54,0,.58-.46.53-1,.66-.87.16-1,.62-1,1.81v5.64A3.71,3.71,0,0,1,226,135.77Z"/><path class="cls-1" d="M230.46,122.85c0-.86-.12-1.07-.66-1.19s-1,0-1-.33.75-.7,2-1.36c1.62-.86,2.2-1.52,2.45-1.52s.29.17.29.49v2.88c0,.12.17.21.25.21.33,0,.62-.62,1.33-1.48a4.06,4.06,0,0,1,3.12-1.85c1.5,0,2.41.95,2.41,2.67,0,1.52-.75,2.39-1.83,2.39s-1.5-.41-1.7-1.44c-.12-.54-.08-1.07-.58-1.07-1.45,0-2.58,2.22-2.58,6.13v7.82c0,1.07.21,1.52.87,1.69s1,0,1,.45-.17.49-.58.49c-.17,0-1.12,0-2.83,0s-2.78,0-3,0c-.58,0-.87-.16-.87-.53s.41-.45,1.12-.66c.54-.16.79-.82.79-1.89Z"/><path class="cls-1" d="M247.83,118.53c4.07,0,7.6,3.95,7.6,9.87a10.87,10.87,0,0,1-2.37,7.16,7,7,0,0,1-5.11,2.8,7.42,7.42,0,0,1-5-2.43c-1.83-1.89-2.66-4.32-2.66-7.53C240.26,122.69,243.88,118.53,247.83,118.53Zm3.86,10c0-5.76-1.75-9-3.86-9s-3.74,3.17-3.74,8.76,1.7,8.84,3.82,8.84S251.69,133.92,251.69,128.53Z"/><path class="cls-1" d="M257.71,122.28c0-1.32,0-1.89-.79-2.26-.58-.25-1.41.08-1.41-.58,0-.45.42-.58,1.5-.58.37,0,.83.08,1.33.08.25,0,.83,0,1.87,0,.67,0,1,.29,1,.9v12.46c0,2.88.79,4.24,3.08,4.24,2.66,0,3.82-1.56,3.82-4.85V121.58c0-1.07-.21-1.52-.87-1.69s-1,0-1-.45a.51.51,0,0,1,.58-.58c.29,0,.67.08,1.12.08.79,0,1.62-.08,2.49-.08s1.16.29,1.16,1.07v13.95c0,.86.13,1.07.66,1.19s1,0,1,.37-.75.7-2,1.36c-1.62.86-2.2,1.52-2.45,1.52s-.29-.16-.29-.49v-2c0-.12-.17-.21-.25-.21s-.58.45-1.33,1a6.51,6.51,0,0,1-4.2,1.65c-3.74,0-5-2.18-5-6.66Z"/><path class="cls-1" d="M280.15,145.85c1.2.16,1.79,0,1.79.49s-.21.54-.62.54c-.25,0-1.58-.08-3.91-.08-2,0-3.12,0-3.32,0-.58,0-.87-.17-.87-.54s.25-.49.79-.49h.25c1,0,1.37-.66,1.37-2V123.18c0-.82-.08-1.11-.67-1.19-.87-.12-1.45.08-1.45-.62,0-.41.75-.41,1.91-.95,1.87-.86,2.58-1.81,3-1.81.21,0,.29.16.29.49v1.32c0,.49,0,.82.25.82s.54-.37,1.33-1a5,5,0,0,1,3.37-1.6c3.28,0,6.32,3.74,6.32,9.46,0,6-3.53,10.16-7.23,10.16a6.73,6.73,0,0,1-3.7-1.15v6.46C279,145.19,279,145.68,280.15,145.85ZM279,131.08c0,4.11.75,6.09,2.91,6.09,2.41,0,4.11-2.84,4.11-8.23s-1.66-8.14-4.2-8.14c-2.16,0-2.83,1.56-2.83,4.61Z"/></svg>